<?xml version="1.0" encoding="UTF-8" standalone="no"?>
<svg
   viewBox="0 0 356.9 75.5"
   version="1.1"
   id="svg9"
   xmlns="http://www.w3.org/2000/svg"
   xmlns:svg="http://www.w3.org/2000/svg"
   xmlns:rdf="http://www.w3.org/1999/02/22-rdf-syntax-ns#"
   xmlns:cc="http://creativecommons.org/ns#"
   xmlns:dc="http://purl.org/dc/elements/1.1/">
  <defs
     id="defs9" />
  <title
     id="title1">Asset 1</title>
  <g
     id="g9">
    <g
       id="g1">
      <circle
         cx="37.7"
         cy="37.7"
         r="37.7"
         fill="#c00"
         id="circle1" />
      <path
         d="M18.4,35.2V32.6a3.2,3.2,0,0,0-1.6.4,3.8,3.8,0,0,0-1.4,1.1V32.7H12.6V42.8h2.8V38.5a4.3,4.3,0,0,1,.6-2.4,2.2,2.2,0,0,1,1.9-.9Zm6.3,0V32.6A3.5,3.5,0,0,0,23,33a3.5,3.5,0,0,0-1.3,1.1V32.7H18.9V42.8h2.8V38.5a4.3,4.3,0,0,1,.6-2.4,2.1,2.1,0,0,1,1.9-.9ZM29.4,43a4,4,0,0,0,2.8-1v.8H35V32.7H32.2v.9a3.9,3.9,0,0,0-2.7-1A4.5,4.5,0,0,0,26.1,34a4.8,4.8,0,0,0-1.5,3.7A5.2,5.2,0,0,0,26,41.5,4.6,4.6,0,0,0,29.4,43Zm-1.3-7.3a2.5,2.5,0,0,1,1.8-.8,1.9,1.9,0,0,1,1.6.9,3.2,3.2,0,0,1,0,4,2.1,2.1,0,0,1-1.6.8,2.3,2.3,0,0,1-1.7-.8,2.8,2.8,0,0,1-.8-2A3.8,3.8,0,0,1,28.1,35.7ZM43,41.5v1.3h2.8V28.9H43v5a3.9,3.9,0,0,0-3.1-1.3A4.1,4.1,0,0,0,36.7,34a5.2,5.2,0,0,0-1.3,3.7,5.3,5.3,0,0,0,1.4,3.8A4.2,4.2,0,0,0,40,43,3.7,3.7,0,0,0,43,41.5Zm-4.1-5.7a2.2,2.2,0,0,1,1.7-.9,2.3,2.3,0,0,1,1.7.8,3.1,3.1,0,0,1,.7,2.1,2.7,2.7,0,0,1-.7,2,2.3,2.3,0,0,1-1.7.8,2.5,2.5,0,0,1-1.7-.8,3.2,3.2,0,0,1,0-4ZM51,43a3.9,3.9,0,0,0,2.7-1v.8h2.9V32.7H53.7v.9a3.5,3.5,0,0,0-2.6-1A4.7,4.7,0,0,0,47.6,34a5.1,5.1,0,0,0-1.4,3.7,4.8,4.8,0,0,0,1.4,3.8A4.6,4.6,0,0,0,51,43Zm-1.3-7.3a2.5,2.5,0,0,1,1.7-.8,2.1,2.1,0,0,1,1.7.9,3.2,3.2,0,0,1,0,4,2.3,2.3,0,0,1-1.7.8,2.5,2.5,0,0,1-1.7-.8,2.7,2.7,0,0,1-.7-2A3.1,3.1,0,0,1,49.7,35.7Zm13.2-.5V32.6a3.3,3.3,0,0,0-1.7.4,3.8,3.8,0,0,0-1.4,1.1V32.7H57V42.8h2.8V38.5a4.3,4.3,0,0,1,.6-2.4,2.3,2.3,0,0,1,1.9-.9Z"
         fill="#fff"
         id="path1" />
    </g>
    <path
       d="m 153.56392,30.048916 q 1.53767,-3.409599 4.67985,-5.281537 3.20903,-1.871937 7.82202,-1.871937 v 4.880408 h -1.27024 q -5.08097,0 -8.1563,2.741051 -3.07533,2.74105 -3.07533,9.15912 v 20.390744 h -4.67984 V 23.563991 h 4.67984 z m 21.86152,-13.370979 q -1.40395,0 -2.40677,-1.002823 -1.00283,-1.002824 -1.00283,-2.473632 0,-1.470807 1.00283,-2.406776 1.00282,-1.0028234 2.40677,-1.0028234 1.40396,0 2.40678,1.0028234 1.00282,0.935969 1.00282,2.406776 0,1.470808 -1.00282,2.473632 -1.00282,1.002823 -2.40678,1.002823 z m 2.33993,6.886054 v 36.502774 h -4.67985 V 23.563991 Z m 23.19865,37.037613 q -6.28436,0 -10.29565,-2.874761 -3.94444,-2.941615 -4.41243,-7.955732 h 4.81356 q 0.33427,3.075325 2.87476,5.014117 2.60734,1.871937 6.95291,1.871937 3.81073,0 5.95008,-1.805082 2.20621,-1.805082 2.20621,-4.479278 0,-1.871937 -1.20338,-3.075325 -1.20339,-1.203389 -3.07533,-1.871938 -1.80508,-0.735403 -4.94726,-1.537662 -4.07815,-1.069678 -6.61864,-2.139357 -2.54048,-1.069678 -4.34556,-3.14218 -1.73823,-2.139357 -1.73823,-5.682666 0,-2.674196 1.60452,-4.947263 1.60451,-2.273066 4.54613,-3.610164 2.94161,-1.337098 6.68549,-1.337098 5.88323,0 9.49339,3.00847 3.61017,2.941616 3.87759,8.156298 h -4.67985 q -0.20056,-3.209035 -2.54048,-5.147827 -2.27307,-2.005647 -6.28436,-2.005647 -3.54331,0 -5.74952,1.671372 -2.20621,1.671373 -2.20621,4.145004 0,2.139357 1.27024,3.543309 1.3371,1.337098 3.27589,2.139357 1.93879,0.735404 5.21468,1.671373 3.94444,1.069678 6.28436,2.072501 2.33992,1.002824 4.01129,2.941616 1.67138,1.938792 1.73823,5.147827 0,2.941615 -1.60452,5.281537 -1.60451,2.273066 -4.47927,3.610164 -2.87476,1.337098 -6.61864,1.337098 z m 41.24949,-0.534839 -15.04235,-16.37945 v 16.37945 h -4.67985 V 10.594141 h 4.67985 v 29.282445 l 14.70807,-16.312595 h 6.55178 l -17.31542,18.184532 17.44913,18.318242 z"
       id="text9"
       style="font-weight:300;font-size:66.8549px;font-family:Poppins;-inkscape-font-specification:'Poppins, Light';stroke-width:5.57998"
       aria-label="risk" />
    <line
       x1="108.9"
       y1="8.6"
       x2="108.9"
       y2="70.6"
       fill="none"
       stroke="#ccc"
       stroke-miterlimit="10"
       stroke-width="1.28"
       id="line8" />
  </g>
  <metadata
     id="metadata9">
    <rdf:RDF>
      <cc:Work
         rdf:about="">
        <dc:title>Asset 1</dc:title>
      </cc:Work>
    </rdf:RDF>
  </metadata>
</svg>
